<?xml version="1.0" standalone="no"?>
<!DOCTYPE svg PUBLIC "-//W3C//DTD SVG 20010904//EN"
 "http://www.w3.org/TR/2001/REC-SVG-20010904/DTD/svg10.dtd">
<svg version="1.0" xmlns="http://www.w3.org/2000/svg"
 width="120.000000pt" height="120.000000pt" viewBox="0 0 120.000000 120.000000"
 preserveAspectRatio="xMidYMid meet">
<metadata>
Created by potrace 1.14, written by Peter Selinger 2001-2017
</metadata>
<g transform="translate(0.000000,120.000000) scale(0.100000,-0.100000)"
fill="#000000" stroke="none">
<path d="M534 1071 c-3 -3 -9 -6 -12 -7 -4 0 -28 -4 -54 -8 -26 -5 -50 -8 -53
-7 -3 1 -18 -5 -33 -13 -15 -8 -41 -16 -58 -19 -104 -16 -240 -134 -279 -242
-13 -36 -22 -65 -20 -65 3 0 0 -12 -6 -27 -13 -35 -15 -163 -2 -172 5 -3 19
-22 31 -42 25 -41 58 -66 94 -73 47 -8 93 -42 111 -82 24 -52 82 -86 148 -86
27 1 54 4 59 7 6 3 10 2 10 -4 0 -15 55 -41 88 -41 18 0 42 -12 68 -35 46 -41
140 -74 197 -69 39 4 88 26 117 54 28 26 72 88 74 107 2 9 15 20 30 24 16 5
37 16 48 25 19 18 67 105 74 136 10 44 12 56 19 103 12 88 12 95 4 95 -5 0 -8
3 -7 8 1 4 -8 27 -19 52 -11 25 -24 60 -28 78 -4 21 -30 57 -73 100 -37 38
-74 77 -83 88 -14 17 -30 28 -89 62 -48 28 -68 35 -114 37 -28 2 -58 6 -66 9
-21 8 -169 14 -176 7z"/>
</g>
</svg>
